<svg id="Layer_1" height="512" viewBox="0 0 512 512" width="512" xmlns="http://www.w3.org/2000/svg" xmlns:xlink="http://www.w3.org/1999/xlink" data-name="Layer 1"><linearGradient id="linear-gradient" gradientUnits="userSpaceOnUse" x1="256.005" x2="256.005" y1="499" y2="72.723"><stop offset=".322" stop-color="#a163f5"/><stop offset=".466" stop-color="#b074ee"/><stop offset=".752" stop-color="#d8a1dd"/><stop offset=".898" stop-color="#efbad3"/></linearGradient><linearGradient id="linear-gradient-2" x1="173.461" x2="173.461" xlink:href="#linear-gradient" y1="499" y2="72.723"/><path d="m422.522 125.263c-4.389-20.706-28.039-38.286-58.057-42.55-16.411-2.33-34.774 1.452-50.385 10.378-1.753 1-3.429 2.058-5.043 3.15a51.9 51.9 0 0 0 -28.389-24.441c-9.772-3.591-21.46-4.928-34.783-4-1.763-2.853-3.589-5.675-5.479-8.442-24.194-35.404-52.718-54.201-82.486-54.358h-.082a16.132 16.132 0 0 0 -15.6 12.493c-1.549 6.788-.974 15.124 1.707 24.776 3.106 11.183 8.149 17.813 14.987 19.7 6.572 1.818 12.208-1.421 14.873-3.4 7.631-.769 16.845 6.54 24.43 18.25-33.345 7.748-67.356 18.9-78.713 44.776a34.824 34.824 0 0 0 -6.044.894c-35.291 8.725-54.312 30.568-58.151 66.777-3.34 31.514 4.819 71.774 13.459 114.4q1.448 7.144 2.909 14.421c9.317 46.587 24.517 88.073 42.8 116.816 18.851 29.641 40.241 45.121 62.179 45.121.812 0 1.624-.028 2.438-.071 8.993 8.714 18.512 13.378 27.96 13.386h.077a98.222 98.222 0 0 0 11.624-.746 56.963 56.963 0 0 1 16.624.081c6.817.943 12.021 3.834 17.53 6.893 6.579 3.655 13.383 7.433 22.531 7.433 18.248 0 29.251-6.713 37.368-18.425a117.336 117.336 0 0 0 12.168.66 83.233 83.233 0 0 0 34.381-6.89c44.117-19.634 63.744-76.6 79.641-156.083 9.037-45.185 18.382-91.908 18.484-128.7.104-40.443-11.342-64.162-34.958-72.299zm-102.486-21.755c13.342-7.628 28.92-10.876 42.741-8.914 22.279 3.164 40.744 14.869 46.566 28.6-21.382.3-67.269 10.356-88.51 26.174-1.187-5.723-.82-14.669 7.415-25.154a6 6 0 0 0 -7.3-9.123 103.393 103.393 0 0 1 -19.422 5.338c3.609-6.075 10.133-12.129 18.51-16.921zm-20.513.445c-5.649 5.522-9.683 11.607-11.681 17.747-8.634-.075-16.42-2.239-19.831-8.677a268.39 268.39 0 0 0 -15.355-33.514c23.226-.352 38.636 7.698 46.867 24.444zm-129.623-56.888a5.783 5.783 0 0 0 -2.77 1.462c-.588.534-3.165 2.417-5.05 1.874-.879-.254-3.954-1.822-6.6-11.344-2.669-9.607-2.327-15.578-1.57-18.9a4.054 4.054 0 0 1 3.9-3.161h.014c32.417.17 57.4 26.811 72.652 49.13a246.983 246.983 0 0 1 26.259 50.933 6.073 6.073 0 0 0 .417 1.11 157.042 157.042 0 0 1 6.627 22.233 6 6 0 0 0 11.758-2.4c-.4-1.94-.892-4.038-1.475-6.257 11.728 3.548 26.1 1.517 36.817-1.1a38.324 38.324 0 0 0 -2.24 18.4c.1.736.216 1.438.348 2.124a74.994 74.994 0 0 0 -10.793-.77c-9.843 0-19.178 3.739-27.414 7.038-7.3 2.926-14.195 5.685-19.7 5.189-5.663-.515-10.085-3.6-15.685-7.5-4.933-3.439-10.542-7.333-18.04-10.149 8.085-10.419 9.353-27.76 2.938-48.621a108.229 108.229 0 0 0 -6.674-16.61c-.013-.073-.02-.145-.036-.217a5.97 5.97 0 0 0 -1.606-2.936c-10.346-18.961-25.967-33.155-42.077-29.528zm34.294 40.7a97.837 97.837 0 0 1 4.628 12.126c4.832 15.713 6.072 35.7-5.773 41.7a74.356 74.356 0 0 0 -8.626-.5 42.22 42.22 0 0 0 -18.748 4.3 79.579 79.579 0 0 0 -29.547-19.173 78.085 78.085 0 0 0 -13.594-3.769c10.366-17.158 36.266-26.613 71.666-34.685zm-120.756 227.969q-1.46-7.29-2.917-14.451c-8.45-41.693-16.431-81.074-13.286-110.75 3.331-31.43 18.474-48.822 49.1-56.393a28.164 28.164 0 0 1 6.119-.769 6 6 0 0 0 1.177.132 5.939 5.939 0 0 0 1.092-.111c14.322.615 30.971 9.736 40.727 18.847-6.226 5.428-11.725 12.79-16.361 22-9.7 19.288-14 42.767-15.895 59.068-2.808 24.156-2.723 44.735-2.614 70.789.021 5.113.043 10.417.043 15.974 0 44.337 8.192 87.248 23.069 120.829a153.112 153.112 0 0 0 14.417 26c-34.323-8.632-67.92-67.406-84.671-151.165zm191.993 179.266c-6.039 0-10.982-2.745-16.7-5.923-5.941-3.3-12.674-7.039-21.711-8.29a73.549 73.549 0 0 0 -10.182-.759 80.789 80.789 0 0 0 -9.4.637 86.777 86.777 0 0 1 -10.312.674h-.066c-13.777-.011-30.02-17.368-42.392-45.3-14.214-32.085-22.041-73.27-22.041-115.969 0-5.575-.022-10.895-.044-16.024-.106-25.652-.191-45.913 2.535-69.354 1.783-15.338 5.781-37.34 14.695-55.06 8.861-17.615 20.507-26.547 34.616-26.547a61.268 61.268 0 0 1 8.657.584c.021 0 .042 0 .064.008 11.559 1.657 18.57 6.541 25.39 11.3 6.209 4.327 12.63 8.8 21.46 9.6 8.374.757 16.57-2.523 25.25-6 7.582-3.038 15.422-6.178 22.952-6.178 16.883 0 31.3 6.427 42.835 19.1 23.281 25.571 41.946 61.276 21.054 148.631-3.08 12.885-13.073 36.1-21.1 54.758-4.023 9.349-7.5 17.422-9.57 22.934-4.521 12.028-8.168 23.023-11.386 32.723-13.426 40.464-19.352 54.455-44.604 54.455zm151.791-171.091c-15.166 75.834-33.343 129.933-72.753 147.473-12.61 5.612-25.128 6.323-35.2 5.71 4.333-9.235 8.009-20.292 12.145-32.76 3.183-9.595 6.79-20.471 11.228-32.278 1.974-5.249 5.4-13.2 9.361-22.413 8.211-19.078 18.43-42.822 21.751-56.711 9.932-41.535 12.006-74.9 6.338-101.992-4.574-21.863-13.885-39.6-30.191-57.509a71.381 71.381 0 0 0 -20.193-15.695c8.511-5.783 22.566-11.514 39.765-16.064 20.844-5.514 39.73-7.5 45.273-6.181 47.88 11.399 29.882 101.391 12.476 188.42z" fill="url(#linear-gradient)"/><path d="m179.229 320.075c0-5.565-.023-10.876-.043-16-.032-7.381-.06-14.351-.019-21.1a6 6 0 0 0 -5.963-6.037h-.038a6 6 0 0 0 -6 5.964c-.042 6.814-.013 13.814.019 21.226.02 5.105.043 10.4.043 15.947 0 6.633.187 13.34.557 19.933a6 6 0 0 0 5.985 5.664c.113 0 .227 0 .341-.009a6 6 0 0 0 5.655-6.327c-.356-6.371-.537-12.851-.537-19.261z" fill="url(#linear-gradient-2)"/></svg>